<mxfile host="app.diagrams.net" agent="Mozilla/5.0 (Windows NT 10.0; Win64; x64) AppleWebKit/537.36 (KHTML, like Gecko) Chrome/130.0.0.0 Safari/537.36 Edg/130.0.0.0" version="24.8.4" pages="2">
  <diagram id="C5RBs43oDa-KdzZeNtuy" name="Website design">
    <mxGraphModel dx="1282" dy="578" grid="1" gridSize="10" guides="1" tooltips="1" connect="1" arrows="1" fold="1" page="1" pageScale="1" pageWidth="827" pageHeight="1169" math="0" shadow="0">
      <root>
        <mxCell id="WIyWlLk6GJQsqaUBKTNV-0" />
        <mxCell id="WIyWlLk6GJQsqaUBKTNV-1" parent="WIyWlLk6GJQsqaUBKTNV-0" />
        <mxCell id="BKBmtfrLU2J-3k3Nx8kg-23" value="Website" style="ellipse;whiteSpace=wrap;html=1;aspect=fixed;fontSize=31;" parent="WIyWlLk6GJQsqaUBKTNV-1" vertex="1">
          <mxGeometry x="590" y="220" width="190" height="190" as="geometry" />
        </mxCell>
        <mxCell id="BKBmtfrLU2J-3k3Nx8kg-34" value="Data Visulization" style="swimlane;fontStyle=0;childLayout=stackLayout;horizontal=1;startSize=26;fillColor=none;horizontalStack=0;resizeParent=1;resizeParentMax=0;resizeLast=0;collapsible=1;marginBottom=0;html=1;" parent="WIyWlLk6GJQsqaUBKTNV-1" vertex="1">
          <mxGeometry x="870" y="277" width="140" height="78" as="geometry" />
        </mxCell>
        <mxCell id="BKBmtfrLU2J-3k3Nx8kg-35" value="Plotly.js" style="text;strokeColor=#9673a6;fillColor=#e1d5e7;align=left;verticalAlign=top;spacingLeft=4;spacingRight=4;overflow=hidden;rotatable=0;points=[[0,0.5],[1,0.5]];portConstraint=eastwest;whiteSpace=wrap;html=1;" parent="BKBmtfrLU2J-3k3Nx8kg-34" vertex="1">
          <mxGeometry y="26" width="140" height="26" as="geometry" />
        </mxCell>
        <mxCell id="BKBmtfrLU2J-3k3Nx8kg-36" value="D3.js (advanced)" style="text;strokeColor=#9673a6;fillColor=#e1d5e7;align=left;verticalAlign=top;spacingLeft=4;spacingRight=4;overflow=hidden;rotatable=0;points=[[0,0.5],[1,0.5]];portConstraint=eastwest;whiteSpace=wrap;html=1;" parent="BKBmtfrLU2J-3k3Nx8kg-34" vertex="1">
          <mxGeometry y="52" width="140" height="26" as="geometry" />
        </mxCell>
        <mxCell id="BKBmtfrLU2J-3k3Nx8kg-38" value="Frontend" style="swimlane;fontStyle=0;childLayout=stackLayout;horizontal=1;startSize=26;fillColor=none;horizontalStack=0;resizeParent=1;resizeParentMax=0;resizeLast=0;collapsible=1;marginBottom=0;html=1;" parent="WIyWlLk6GJQsqaUBKTNV-1" vertex="1">
          <mxGeometry x="370" y="271" width="120" height="120" as="geometry" />
        </mxCell>
        <mxCell id="BKBmtfrLU2J-3k3Nx8kg-39" value="HTML" style="text;strokeColor=#9673a6;fillColor=#e1d5e7;align=left;verticalAlign=top;spacingLeft=4;spacingRight=4;overflow=hidden;rotatable=0;points=[[0,0.5],[1,0.5]];portConstraint=eastwest;whiteSpace=wrap;html=1;" parent="BKBmtfrLU2J-3k3Nx8kg-38" vertex="1">
          <mxGeometry y="26" width="120" height="24" as="geometry" />
        </mxCell>
        <mxCell id="BKBmtfrLU2J-3k3Nx8kg-40" value="CSS" style="text;strokeColor=#9673a6;fillColor=#e1d5e7;align=left;verticalAlign=top;spacingLeft=4;spacingRight=4;overflow=hidden;rotatable=0;points=[[0,0.5],[1,0.5]];portConstraint=eastwest;whiteSpace=wrap;html=1;" parent="BKBmtfrLU2J-3k3Nx8kg-38" vertex="1">
          <mxGeometry y="50" width="120" height="26" as="geometry" />
        </mxCell>
        <mxCell id="BKBmtfrLU2J-3k3Nx8kg-41" value="React&amp;nbsp;&lt;div&gt;Angular(advanced)&lt;/div&gt;" style="text;strokeColor=#9673a6;fillColor=#e1d5e7;align=left;verticalAlign=top;spacingLeft=4;spacingRight=4;overflow=hidden;rotatable=0;points=[[0,0.5],[1,0.5]];portConstraint=eastwest;whiteSpace=wrap;html=1;" parent="BKBmtfrLU2J-3k3Nx8kg-38" vertex="1">
          <mxGeometry y="76" width="120" height="44" as="geometry" />
        </mxCell>
        <mxCell id="BKBmtfrLU2J-3k3Nx8kg-42" value="" style="group" parent="WIyWlLk6GJQsqaUBKTNV-1" vertex="1" connectable="0">
          <mxGeometry x="1110" y="150" width="400" height="280" as="geometry" />
        </mxCell>
        <mxCell id="BKBmtfrLU2J-3k3Nx8kg-19" value="" style="edgeStyle=orthogonalEdgeStyle;rounded=0;orthogonalLoop=1;jettySize=auto;html=1;" parent="BKBmtfrLU2J-3k3Nx8kg-42" source="BKBmtfrLU2J-3k3Nx8kg-0" target="BKBmtfrLU2J-3k3Nx8kg-11" edge="1">
          <mxGeometry relative="1" as="geometry" />
        </mxCell>
        <mxCell id="BKBmtfrLU2J-3k3Nx8kg-0" value="Real-time&amp;nbsp;&lt;div&gt;financial data&lt;div&gt;(FSBC)&lt;/div&gt;&lt;/div&gt;" style="ellipse;shape=cloud;whiteSpace=wrap;html=1;" parent="BKBmtfrLU2J-3k3Nx8kg-42" vertex="1">
          <mxGeometry x="20" y="40" width="120" height="100" as="geometry" />
        </mxCell>
        <mxCell id="BKBmtfrLU2J-3k3Nx8kg-1" value="" style="endArrow=classic;html=1;rounded=0;entryX=0;entryY=0.5;entryDx=0;entryDy=0;exitX=0.875;exitY=0.5;exitDx=0;exitDy=0;exitPerimeter=0;" parent="BKBmtfrLU2J-3k3Nx8kg-42" source="BKBmtfrLU2J-3k3Nx8kg-0" target="BKBmtfrLU2J-3k3Nx8kg-11" edge="1">
          <mxGeometry relative="1" as="geometry">
            <mxPoint x="310" y="180" as="sourcePoint" />
            <mxPoint x="280" y="90" as="targetPoint" />
          </mxGeometry>
        </mxCell>
        <mxCell id="BKBmtfrLU2J-3k3Nx8kg-27" style="edgeStyle=orthogonalEdgeStyle;rounded=0;orthogonalLoop=1;jettySize=auto;html=1;exitX=0.5;exitY=1;exitDx=0;exitDy=0;entryX=0.5;entryY=0;entryDx=0;entryDy=0;" parent="BKBmtfrLU2J-3k3Nx8kg-42" source="BKBmtfrLU2J-3k3Nx8kg-4" target="BKBmtfrLU2J-3k3Nx8kg-17" edge="1">
          <mxGeometry relative="1" as="geometry" />
        </mxCell>
        <mxCell id="BKBmtfrLU2J-3k3Nx8kg-4" value="Raw data" style="rounded=1;whiteSpace=wrap;html=1;" parent="BKBmtfrLU2J-3k3Nx8kg-42" vertex="1">
          <mxGeometry x="290" y="65" width="70" height="50" as="geometry" />
        </mxCell>
        <mxCell id="BKBmtfrLU2J-3k3Nx8kg-15" style="edgeStyle=orthogonalEdgeStyle;rounded=0;orthogonalLoop=1;jettySize=auto;html=1;exitX=1;exitY=0.5;exitDx=0;exitDy=0;entryX=0;entryY=0.5;entryDx=0;entryDy=0;" parent="BKBmtfrLU2J-3k3Nx8kg-42" source="BKBmtfrLU2J-3k3Nx8kg-11" target="BKBmtfrLU2J-3k3Nx8kg-4" edge="1">
          <mxGeometry relative="1" as="geometry" />
        </mxCell>
        <mxCell id="BKBmtfrLU2J-3k3Nx8kg-11" value="Apache Kafka" style="rounded=0;whiteSpace=wrap;html=1;fillColor=#e1d5e7;strokeColor=#9673a6;" parent="BKBmtfrLU2J-3k3Nx8kg-42" vertex="1">
          <mxGeometry x="170" y="70" width="80" height="40" as="geometry" />
        </mxCell>
        <mxCell id="BKBmtfrLU2J-3k3Nx8kg-28" style="edgeStyle=orthogonalEdgeStyle;rounded=0;orthogonalLoop=1;jettySize=auto;html=1;exitX=0;exitY=0.5;exitDx=0;exitDy=0;entryX=1;entryY=0.5;entryDx=0;entryDy=0;" parent="BKBmtfrLU2J-3k3Nx8kg-42" source="BKBmtfrLU2J-3k3Nx8kg-17" target="BKBmtfrLU2J-3k3Nx8kg-18" edge="1">
          <mxGeometry relative="1" as="geometry" />
        </mxCell>
        <mxCell id="BKBmtfrLU2J-3k3Nx8kg-17" value="Python" style="rounded=0;whiteSpace=wrap;html=1;fillColor=#e1d5e7;strokeColor=#9673a6;" parent="BKBmtfrLU2J-3k3Nx8kg-42" vertex="1">
          <mxGeometry x="285" y="200" width="80" height="40" as="geometry" />
        </mxCell>
        <mxCell id="BKBmtfrLU2J-3k3Nx8kg-18" value="Processed data" style="rounded=1;whiteSpace=wrap;html=1;" parent="BKBmtfrLU2J-3k3Nx8kg-42" vertex="1">
          <mxGeometry x="170" y="192.5" width="75" height="55" as="geometry" />
        </mxCell>
        <mxCell id="BKBmtfrLU2J-3k3Nx8kg-26" value="Database&lt;div&gt;(MongoDB)&lt;/div&gt;" style="shape=cylinder3;whiteSpace=wrap;html=1;boundedLbl=1;backgroundOutline=1;size=15;fillColor=#e1d5e7;strokeColor=#9673a6;" parent="BKBmtfrLU2J-3k3Nx8kg-42" vertex="1">
          <mxGeometry x="50" y="180" width="70" height="80" as="geometry" />
        </mxCell>
        <mxCell id="BKBmtfrLU2J-3k3Nx8kg-29" style="edgeStyle=orthogonalEdgeStyle;rounded=0;orthogonalLoop=1;jettySize=auto;html=1;exitX=0;exitY=0.5;exitDx=0;exitDy=0;entryX=1;entryY=0.5;entryDx=0;entryDy=0;entryPerimeter=0;" parent="BKBmtfrLU2J-3k3Nx8kg-42" source="BKBmtfrLU2J-3k3Nx8kg-18" target="BKBmtfrLU2J-3k3Nx8kg-26" edge="1">
          <mxGeometry relative="1" as="geometry" />
        </mxCell>
        <mxCell id="BKBmtfrLU2J-3k3Nx8kg-32" value="Pre-processing data" style="swimlane;" parent="BKBmtfrLU2J-3k3Nx8kg-42" vertex="1">
          <mxGeometry width="400" height="280" as="geometry" />
        </mxCell>
        <mxCell id="BKBmtfrLU2J-3k3Nx8kg-43" value="" style="shape=singleArrow;direction=west;whiteSpace=wrap;html=1;" parent="WIyWlLk6GJQsqaUBKTNV-1" vertex="1">
          <mxGeometry x="1010" y="277" width="100" height="60" as="geometry" />
        </mxCell>
        <mxCell id="BKBmtfrLU2J-3k3Nx8kg-45" value="" style="shape=singleArrow;whiteSpace=wrap;html=1;" parent="WIyWlLk6GJQsqaUBKTNV-1" vertex="1">
          <mxGeometry x="490" y="292" width="100" height="60" as="geometry" />
        </mxCell>
        <mxCell id="BKBmtfrLU2J-3k3Nx8kg-47" value="" style="shape=singleArrow;direction=west;whiteSpace=wrap;html=1;" parent="WIyWlLk6GJQsqaUBKTNV-1" vertex="1">
          <mxGeometry x="780" y="292" width="90" height="60" as="geometry" />
        </mxCell>
        <mxCell id="BKBmtfrLU2J-3k3Nx8kg-49" value="&lt;br&gt;&lt;span style=&quot;color: rgb(0, 0, 0); font-family: Helvetica; font-size: 12px; font-style: normal; font-variant-ligatures: normal; font-variant-caps: normal; font-weight: 400; letter-spacing: normal; orphans: 2; text-align: center; text-indent: 0px; text-transform: none; widows: 2; word-spacing: 0px; -webkit-text-stroke-width: 0px; white-space: normal; background-color: rgb(251, 251, 251); text-decoration-thickness: initial; text-decoration-style: initial; text-decoration-color: initial; display: inline !important; float: none;&quot;&gt;Proper&amp;nbsp;&lt;/span&gt;&lt;div&gt;&lt;span style=&quot;color: rgb(0, 0, 0); font-family: Helvetica; font-size: 12px; font-style: normal; font-variant-ligatures: normal; font-variant-caps: normal; font-weight: 400; letter-spacing: normal; orphans: 2; text-align: center; text-indent: 0px; text-transform: none; widows: 2; word-spacing: 0px; -webkit-text-stroke-width: 0px; white-space: normal; background-color: rgb(251, 251, 251); text-decoration-thickness: initial; text-decoration-style: initial; text-decoration-color: initial; display: inline !important; float: none;&quot;&gt;Visualization&lt;/span&gt;&lt;br&gt;&lt;br&gt;&lt;/div&gt;" style="shape=hexagon;perimeter=hexagonPerimeter2;whiteSpace=wrap;html=1;fixedSize=1;" parent="WIyWlLk6GJQsqaUBKTNV-1" vertex="1">
          <mxGeometry x="850" y="180" width="90" height="50" as="geometry" />
        </mxCell>
        <mxCell id="BKBmtfrLU2J-3k3Nx8kg-50" value="Necessary&lt;div&gt;Information&lt;/div&gt;" style="shape=hexagon;perimeter=hexagonPerimeter2;whiteSpace=wrap;html=1;fixedSize=1;" parent="WIyWlLk6GJQsqaUBKTNV-1" vertex="1">
          <mxGeometry x="970" y="180" width="90" height="50" as="geometry" />
        </mxCell>
        <mxCell id="BKBmtfrLU2J-3k3Nx8kg-51" value="" style="endArrow=none;dashed=1;html=1;rounded=0;entryX=0.5;entryY=1;entryDx=0;entryDy=0;exitX=0.25;exitY=0;exitDx=0;exitDy=0;" parent="WIyWlLk6GJQsqaUBKTNV-1" source="BKBmtfrLU2J-3k3Nx8kg-34" target="BKBmtfrLU2J-3k3Nx8kg-49" edge="1">
          <mxGeometry width="50" height="50" relative="1" as="geometry">
            <mxPoint x="870" y="300" as="sourcePoint" />
            <mxPoint x="920" y="250" as="targetPoint" />
          </mxGeometry>
        </mxCell>
        <mxCell id="BKBmtfrLU2J-3k3Nx8kg-53" value="" style="endArrow=none;dashed=1;html=1;rounded=0;exitX=0.75;exitY=0;exitDx=0;exitDy=0;entryX=0.5;entryY=1;entryDx=0;entryDy=0;" parent="WIyWlLk6GJQsqaUBKTNV-1" source="BKBmtfrLU2J-3k3Nx8kg-34" target="BKBmtfrLU2J-3k3Nx8kg-50" edge="1">
          <mxGeometry width="50" height="50" relative="1" as="geometry">
            <mxPoint x="970" y="270" as="sourcePoint" />
            <mxPoint x="1020" y="220" as="targetPoint" />
          </mxGeometry>
        </mxCell>
        <mxCell id="BKBmtfrLU2J-3k3Nx8kg-55" value="Functionality" style="swimlane;fontStyle=0;childLayout=stackLayout;horizontal=1;startSize=30;horizontalStack=0;resizeParent=1;resizeParentMax=0;resizeLast=0;collapsible=1;marginBottom=0;whiteSpace=wrap;html=1;" parent="WIyWlLk6GJQsqaUBKTNV-1" vertex="1">
          <mxGeometry x="624" y="475" width="140" height="120" as="geometry" />
        </mxCell>
        <mxCell id="BKBmtfrLU2J-3k3Nx8kg-56" value="Filter data" style="text;strokeColor=none;fillColor=none;align=left;verticalAlign=middle;spacingLeft=4;spacingRight=4;overflow=hidden;points=[[0,0.5],[1,0.5]];portConstraint=eastwest;rotatable=0;whiteSpace=wrap;html=1;" parent="BKBmtfrLU2J-3k3Nx8kg-55" vertex="1">
          <mxGeometry y="30" width="140" height="30" as="geometry" />
        </mxCell>
        <mxCell id="BKBmtfrLU2J-3k3Nx8kg-57" value="Search data" style="text;strokeColor=none;fillColor=none;align=left;verticalAlign=middle;spacingLeft=4;spacingRight=4;overflow=hidden;points=[[0,0.5],[1,0.5]];portConstraint=eastwest;rotatable=0;whiteSpace=wrap;html=1;" parent="BKBmtfrLU2J-3k3Nx8kg-55" vertex="1">
          <mxGeometry y="60" width="140" height="30" as="geometry" />
        </mxCell>
        <mxCell id="BKBmtfrLU2J-3k3Nx8kg-58" value="Analysis data" style="text;strokeColor=none;fillColor=none;align=left;verticalAlign=middle;spacingLeft=4;spacingRight=4;overflow=hidden;points=[[0,0.5],[1,0.5]];portConstraint=eastwest;rotatable=0;whiteSpace=wrap;html=1;" parent="BKBmtfrLU2J-3k3Nx8kg-55" vertex="1">
          <mxGeometry y="90" width="140" height="30" as="geometry" />
        </mxCell>
        <mxCell id="BKBmtfrLU2J-3k3Nx8kg-63" value="" style="endArrow=classic;startArrow=classic;html=1;rounded=0;exitX=0.576;exitY=1.055;exitDx=0;exitDy=0;exitPerimeter=0;" parent="WIyWlLk6GJQsqaUBKTNV-1" source="BKBmtfrLU2J-3k3Nx8kg-41" edge="1">
          <mxGeometry width="50" height="50" relative="1" as="geometry">
            <mxPoint x="800" y="380" as="sourcePoint" />
            <mxPoint x="620" y="530" as="targetPoint" />
          </mxGeometry>
        </mxCell>
        <mxCell id="BKBmtfrLU2J-3k3Nx8kg-64" value="" style="endArrow=classic;startArrow=classic;html=1;rounded=0;exitX=0.5;exitY=1;exitDx=0;exitDy=0;entryX=1.026;entryY=-0.098;entryDx=0;entryDy=0;entryPerimeter=0;" parent="WIyWlLk6GJQsqaUBKTNV-1" source="BKBmtfrLU2J-3k3Nx8kg-34" target="BKBmtfrLU2J-3k3Nx8kg-57" edge="1">
          <mxGeometry width="50" height="50" relative="1" as="geometry">
            <mxPoint x="449" y="403" as="sourcePoint" />
            <mxPoint x="630" y="540" as="targetPoint" />
          </mxGeometry>
        </mxCell>
        <mxCell id="BKBmtfrLU2J-3k3Nx8kg-66" value="JavaScript" style="strokeWidth=2;html=1;shape=mxgraph.flowchart.decision;whiteSpace=wrap;fillColor=#e1d5e7;strokeColor=#9673a6;" parent="WIyWlLk6GJQsqaUBKTNV-1" vertex="1">
          <mxGeometry x="644" y="595" width="100" height="100" as="geometry" />
        </mxCell>
      </root>
    </mxGraphModel>
  </diagram>
  <diagram id="LXVHtN_WKoAmkVzNOPe4" name="Kafka">
    <mxGraphModel dx="3181" dy="2213" grid="1" gridSize="10" guides="1" tooltips="1" connect="1" arrows="1" fold="1" page="1" pageScale="1" pageWidth="850" pageHeight="1100" math="0" shadow="0">
      <root>
        <mxCell id="0" />
        <mxCell id="1" parent="0" />
        <mxCell id="53slpwdak0z2Rnfy8Iiv-1" value="&lt;font style=&quot;font-size: 36px;&quot;&gt;PostgreSQL&lt;/font&gt;" style="shape=cylinder3;whiteSpace=wrap;html=1;boundedLbl=1;backgroundOutline=1;size=15;" vertex="1" parent="1">
          <mxGeometry x="1600" y="410" width="266.25" height="355" as="geometry" />
        </mxCell>
        <mxCell id="53slpwdak0z2Rnfy8Iiv-2" value="&lt;font style=&quot;font-size: 36px;&quot;&gt;Website&lt;/font&gt;" style="rhombus;whiteSpace=wrap;html=1;" vertex="1" parent="1">
          <mxGeometry x="-140" y="422.5" width="330" height="330" as="geometry" />
        </mxCell>
        <mxCell id="53slpwdak0z2Rnfy8Iiv-3" value="&lt;font style=&quot;font-size: 36px;&quot;&gt;Data&lt;/font&gt;&lt;div&gt;&lt;font style=&quot;font-size: 36px;&quot;&gt;(VCI, TCBS)&lt;/font&gt;&lt;/div&gt;" style="ellipse;shape=cloud;whiteSpace=wrap;html=1;" vertex="1" parent="1">
          <mxGeometry x="760" y="-200" width="375" height="250" as="geometry" />
        </mxCell>
        <mxCell id="53slpwdak0z2Rnfy8Iiv-4" value="&lt;font style=&quot;font-size: 24px;&quot;&gt;Kafka&lt;/font&gt;" style="swimlane;whiteSpace=wrap;html=1;startSize=40;" vertex="1" parent="1">
          <mxGeometry x="390" y="70" width="1110" height="1010" as="geometry" />
        </mxCell>
      </root>
    </mxGraphModel>
  </diagram>
</mxfile>
